<svg width="150" height="150" viewBox="0 0 150 150" fill="none" xmlns="http://www.w3.org/2000/svg">
<circle cx="75" cy="75" r="75" fill="#F2F2F3"/>
<path d="M91.2935 74H62.5768C61.9232 73.998 61.2923 73.7568 60.8006 73.321L48.9724 62.7616C48.5663 62.3986 48.0431 62.1984 47.5013 62.1988H37.2935V26.5621C37.2951 25.1478 38.4274 24.0016 39.8247 24H88.7622C90.1595 24.0016 91.2919 25.1478 91.2935 26.5621L91.2935 74Z" fill="#6B6B6B"/>
<circle cx="49.7935" cy="35.5" r="5.5" fill="white"/>
<path d="M71.6246 32H61.9624C61.593 32 61.2935 32.2239 61.2935 32.5C61.2935 32.7761 61.593 33 61.9624 33H71.6246C71.994 33 72.2935 32.7761 72.2935 32.5C72.2935 32.2239 71.994 32 71.6246 32Z" fill="white"/>
<path d="M85.7284 37H60.8585C60.5465 37 60.2935 37.2244 60.2935 37.5C60.2935 37.7756 60.5465 38 60.8585 38H85.7284C86.0405 38 86.2935 37.7756 86.2935 37.5C86.2935 37.2244 86.0405 37 85.7284 37Z" fill="white"/>
<path d="M83.7504 46H46.8366C46.5369 46 46.2935 46.2244 46.2935 46.5C46.2935 46.7756 46.5369 47 46.8366 47H83.7504C84.05 47 84.2935 46.7756 84.2935 46.5C84.2935 46.2244 84.05 46 83.7504 46Z" fill="white"/>
<path d="M83.7504 51H46.8366C46.5369 51 46.2935 51.2244 46.2935 51.5C46.2935 51.7756 46.5369 52 46.8366 52H83.7504C84.05 52 84.2935 51.7756 84.2935 51.5C84.2935 51.2244 84.05 51 83.7504 51Z" fill="white"/>
<path d="M83.7504 55H46.8366C46.5369 55 46.2935 55.2244 46.2935 55.5C46.2935 55.7756 46.5369 56 46.8366 56H83.7504C84.05 56 84.2935 55.7756 84.2935 55.5C84.2935 55.2244 84.05 55 83.7504 55Z" fill="white"/>
<path d="M83.7504 60H46.8366C46.5369 60 46.2935 60.2244 46.2935 60.5C46.2935 60.7756 46.5369 61 46.8366 61H83.7504C84.05 61 84.2935 60.7756 84.2935 60.5C84.2935 60.2244 84.05 60 83.7504 60Z" fill="white"/>
<path d="M116.293 74H63.7984C63.2758 74.0009 62.7645 73.8475 62.328 73.5587L62.2935 73.5359V37.5435C62.2951 36.1394 63.4274 35.0016 64.8247 35H113.762C115.16 35.0016 116.292 36.1394 116.293 37.5435L116.293 74Z" fill="#E6E6E6"/>
<circle cx="73.7935" cy="46.5" r="5.5" fill="white"/>
<path d="M94.6246 43H84.9624C84.593 43 84.2935 43.2239 84.2935 43.5C84.2935 43.7761 84.593 44 84.9624 44H94.6246C94.994 44 95.2935 43.7761 95.2935 43.5C95.2935 43.2239 94.994 43 94.6246 43Z" fill="white"/>
<path d="M109.728 47H84.8585C84.5465 47 84.2935 47.2244 84.2935 47.5C84.2935 47.7756 84.5465 48 84.8585 48H109.728C110.04 48 110.293 47.7756 110.293 47.5C110.293 47.2244 110.04 47 109.728 47Z" fill="white"/>
<path d="M107.75 56H70.8366C70.5369 56 70.2935 56.2244 70.2935 56.5C70.2935 56.7756 70.5369 57 70.8366 57H107.75C108.05 57 108.293 56.7756 108.293 56.5C108.293 56.2244 108.05 56 107.75 56Z" fill="white"/>
<path d="M107.75 62H70.8366C70.5369 62 70.2935 62.2244 70.2935 62.5C70.2935 62.7756 70.5369 63 70.8366 63H107.75C108.05 63 108.293 62.7756 108.293 62.5C108.293 62.2244 108.05 62 107.75 62Z" fill="white"/>
<path d="M107.75 65H70.8366C70.5369 65 70.2935 65.2244 70.2935 65.5C70.2935 65.7756 70.5369 66 70.8366 66H107.75C108.05 66 108.293 65.7756 108.293 65.5C108.293 65.2244 108.05 65 107.75 65Z" fill="white"/>
<path d="M107.75 70H70.8366C70.5369 70 70.2935 70.2244 70.2935 70.5C70.2935 70.7756 70.5369 71 70.8366 71H107.75C108.05 71 108.293 70.7756 108.293 70.5C108.293 70.2244 108.05 70 107.75 70Z" fill="white"/>
<path d="M119.293 123.709C119.292 124.974 118.249 125.998 116.961 126H33.6256C32.3383 125.998 31.295 124.974 31.2935 123.709V64.2912C31.295 63.0264 32.3383 62.0015 33.6256 62H47.0029C47.5709 61.9996 48.1195 62.2033 48.5452 62.5728L55.6412 68.7208L60.5325 72.9594C61.0166 73.3762 61.6379 73.6067 62.2816 73.6086H116.961C118.249 73.6101 119.292 74.635 119.293 75.8998V123.709Z" fill="white"/>
<path fill-rule="evenodd" clip-rule="evenodd" d="M55.6083 117H100.979C102.256 116.999 103.292 115.95 103.293 114.656V89.3438C103.292 88.0499 102.256 87.0015 100.979 87H55.6083C54.3304 87.0015 53.2949 88.0499 53.2935 89.3438V114.656C53.2949 115.95 54.3304 116.999 55.6083 117ZM53.6021 89.3438C53.6034 88.2225 54.5008 87.3138 55.6083 87.3125H100.979C102.086 87.3138 102.984 88.2225 102.985 89.3438V114.656C102.984 115.778 102.086 116.686 100.979 116.688H55.6083C54.5008 116.686 53.6034 115.778 53.6021 114.656V89.3438Z" fill="#E6E6E6"/>
<circle cx="61.7935" cy="96.5" r="5.5" fill="#E6E6E6"/>
<path d="M83.6246 93H73.9624C73.593 93 73.2935 93.2239 73.2935 93.5C73.2935 93.7761 73.593 94 73.9624 94H83.6246C83.994 94 84.2935 93.7761 84.2935 93.5C84.2935 93.2239 83.994 93 83.6246 93Z" fill="#E6E6E6"/>
<path d="M97.7284 98H72.8585C72.5465 98 72.2935 98.2244 72.2935 98.5C72.2935 98.7756 72.5465 99 72.8585 99H97.7284C98.0405 99 98.2935 98.7756 98.2935 98.5C98.2935 98.2244 98.0405 98 97.7284 98Z" fill="#E6E6E6"/>
<path d="M95.7504 107H58.8366C58.5369 107 58.2935 107.224 58.2935 107.5C58.2935 107.776 58.5369 108 58.8366 108H95.7504C96.05 108 96.2935 107.776 96.2935 107.5C96.2935 107.224 96.05 107 95.7504 107Z" fill="#E6E6E6"/>
<path d="M95.7504 112H58.8366C58.5369 112 58.2935 112.224 58.2935 112.5C58.2935 112.776 58.5369 113 58.8366 113H95.7504C96.05 113 96.2935 112.776 96.2935 112.5C96.2935 112.224 96.05 112 95.7504 112Z" fill="#E6E6E6"/>
</svg>
